<svg id="Layer_1" data-name="Layer 1" xmlns="http://www.w3.org/2000/svg" viewBox="0 0 1000 1000">
    <defs>
        <style>
            .cls-1 {
                fill: #cb3fff;
                stroke: #231f20;
                stroke-miterlimit: 10;
            }

            .cls-2, .cls-3, .cls-4, .cls-5, .cls-6, .cls-7, .cls-8, .cls-9 {
                fill: #FFFFFF;
            }
        </style>
    </defs>
    <rect class="cls-1" width="1000" height="1000" />
    <g id="Illustrations">
        <path class="cls-2"
            d="M319.64,676.76l9.6,21.76a51.51,51.51,0,0,1-2.63,46.88l-35.15,59.83,4.13,70c22.52-7.63,19.13,16,19.13,16H278.1l-14.18-97.11a26.69,26.69,0,0,1,4.07-18.4l13.16-20.1s-11.42-15.07-21.47-28.45c-27.18-36.08-21.31-79.28,6.95-114.53Z" />
        <path class="cls-2"
            d="M314.64,897.07H278.1a5.82,5.82,0,0,1-5.71-5.07l-14.18-97.06a32.54,32.54,0,0,1,5-22.5l10.92-16.62-19-25.14c-27.44-36.48-24.81-82,7-121.78a5.77,5.77,0,0,1,4.45-2.16,5.54,5.54,0,0,1,4.47,2.11L324,673a5.79,5.79,0,0,1,.84,1.39l9.6,21.76a57.4,57.4,0,0,1-3,52.26L297.2,806.67,300.83,868a16.81,16.81,0,0,1,13.39,3.55c7.89,6.64,6.28,19.06,6.07,20.48A5.82,5.82,0,0,1,314.64,897.07Zm-31.57-11.74h25.75a7.81,7.81,0,0,0-2-4.8c-1.61-1.33-5-1.25-9.47.27a5.74,5.74,0,0,1-7.31-3.65,5.83,5.83,0,0,1-.3-1.55l-4.15-70a6.05,6.05,0,0,1,.81-3.36l35.15-59.81a45.59,45.59,0,0,0,2.39-41.49l-9.26-21L266.86,622c-24.17,33.86-25.25,71.43-2.63,101.59,10,13.33,21.44,28.45,21.47,28.45a6,6,0,0,1,.21,6.83l-13.15,20.08a20.81,20.81,0,0,0-3.13,14.42Z" />
        <path class="cls-3"
            d="M744.25,846.67v47.41H603.45c0-33.33,24.36-19.52,76.5-54.64C688.18,855.39,715.49,863.66,744.25,846.67Z" />
        <path class="cls-3"
            d="M744.25,900H603.45a5.83,5.83,0,0,1-5.79-5.87h0c0-23.83,12-28.31,30.2-35.09a211.42,211.42,0,0,0,48.88-24.42,5.73,5.73,0,0,1,8.34,2.16,25.62,25.62,0,0,0,16,12c12,3.52,26.7.93,40.25-7.07a5.74,5.74,0,0,1,7.91,2.11,5.8,5.8,0,0,1,.79,2.93v47.41A5.84,5.84,0,0,1,744.25,900Zm-134.7-11.73H738.46v-32A59.21,59.21,0,0,1,697.87,860a38.65,38.65,0,0,1-19.55-12.45A224,224,0,0,1,631.86,870c-14.94,5.47-20.92,7.68-22.31,18.13Z" />
        <rect class="cls-4" x="603.45" y="890.19" width="140.8" height="3.84" />
        <path class="cls-4"
            d="M603.45,884.32h140.8a5.83,5.83,0,0,1,5.78,5.87V894a5.83,5.83,0,0,1-5.78,5.87H603.45a5.83,5.83,0,0,1-5.79-5.87v-3.81A5.83,5.83,0,0,1,603.45,884.32Z" />
        <path class="cls-5"
            d="M702.73,401.88c-4.05,46.66-15,142.47-20.12,186.65-1.84,15.68-3.08,32-3.66,47.7-2,52.19-6.21,171.72-5.1,196.5,28.44,15.86,45,16.61,76.42,6.69,14.87-153.64,33.57-256.89,42.65-306.86,5.81-32.13,48.67-110.26,3.71-187.35Z" />
        <path class="cls-5"
            d="M715.94,851.76c-14.76,0-28-4.5-44.88-13.94a5.77,5.77,0,0,1-3-4.86c-1.14-25,3.18-146.06,5.07-197,.61-16.18,1.87-32.39,3.71-48.18C682.71,537.33,693.1,446,697,401.37a5.88,5.88,0,0,1,2.79-4.53l93.92-56.67a5.74,5.74,0,0,1,7.89,2.06c37.2,63.73,16.34,128.57,3.87,167.32a221.27,221.27,0,0,0-6.87,24c-9,49.51-27.67,152.55-42.56,306.37a5.88,5.88,0,0,1-4,5A120.23,120.23,0,0,1,715.94,851.76Zm-36.41-22.61c23.52,12.64,38.09,14,65.37,5.79,14.87-152.18,33.39-254.2,42.33-303.47a223.33,223.33,0,0,1,7.24-25.55c12.26-38.13,30.62-95.16,0-152.63l-86.24,52.08c-4.05,45.73-14.15,134.36-19.89,183.83-1.81,15.46-3,31.38-3.63,47.25-1.81,48.77-5.84,162.22-5.18,192.7Z" />
        <path class="cls-6"
            d="M538.23,268.82c-19.84,1.09-21.39,5.6-35.67-8.37-10.21-9.95-10.53-8.16-16.34-10.06C479,248,480.8,240,481,234.88A22.78,22.78,0,0,0,477,220.05c-18.92-31.81-15.24-58.21,9-77.83l24,2.66,50.49,12.51c20.86,11.09,48,29.84,46,43-4.47,30,4.44,43,28,57.06,8.44,4.91-34.75,52.45-34.75,52.45C568.75,269.67,559.35,267.65,538.23,268.82Z" />
        <path class="cls-7" d="M602.37,156.77c11.18,30.62,24.36,48.27,54.72,56.61L645.2,242.32l-65.06-6.72Z" />
        <path class="cls-7"
            d="M645.12,248.15h-.66l-65-6.77a5.84,5.84,0,0,1-5.16-6.44,6.78,6.78,0,0,1,.19-1l22.26-78.85a5.74,5.74,0,0,1,11-.4c13.15,36.27,28.67,46.91,50.83,53a5.87,5.87,0,0,1,3.81,7.92l-11.89,28.9A5.75,5.75,0,0,1,645.12,248.15ZM587.5,230.48l53.94,5.57,7.89-18.93c-23.68-8-36.41-22.56-45.91-42.67Z" />
        <path class="cls-2"
            d="M277.1,600.56C220.43,663,180.91,718.92,79.26,744.06c31.57,22.06,94.71,38.8,129.8-21.86C229.48,687,249.18,678.68,282.57,692Z" />
        <path class="cls-2"
            d="M140.45,770.06c-24.86,0-48.67-10.1-64.48-21.17a5.89,5.89,0,0,1-1.52-8.11,5.72,5.72,0,0,1,3.42-2.39c88.39-21.87,129.06-67.71,176.26-120.8,6.08-6.82,12.36-13.91,18.81-21a5.75,5.75,0,0,1,10,3.6l5.5,91.52a5.86,5.86,0,0,1-5.5,6.19,5.59,5.59,0,0,1-2.39-.38c-30.57-12.27-47.35-5.33-66.43,27.65-13.52,23.33-32,37.76-54.88,42.88A86.2,86.2,0,0,1,140.45,770.06ZM94,746.06c17.39,9.12,40.43,15.36,62.69,10.4,19.62-4.4,35.59-17,47.35-37.33,20.23-34.87,41-45.33,72.22-35.62l-4.08-68.82-9.52,10.66c-46,51.89-86,97-168.66,120.85Z" />
        <path class="cls-3"
            d="M865.45,843.63l2.31,50.4H726.86c0-33.33,24.38-19.52,76.5-54.64C811.65,855.39,836.51,860.67,865.45,843.63Z" />
        <path class="cls-3"
            d="M867.66,900H726.86a5.85,5.85,0,0,1-5.79-5.87c0-23.83,12-28.31,30.2-35.09a211.82,211.82,0,0,0,48.91-24.42,5.72,5.72,0,0,1,8,1.61,4.94,4.94,0,0,1,.32.55,21.06,21.06,0,0,0,13.37,10.34c11.2,3.26,26,.19,40.56-8.45a5.8,5.8,0,0,1,8.68,4.8l2.35,50.4a5.84,5.84,0,0,1-5.52,6.12ZM733,888.27H861.61L860,853.18c-14.74,6.88-29.15,8.74-41.31,5.33a33.83,33.83,0,0,1-16.91-10.83,223.27,223.27,0,0,1-46.49,22.48c-14.94,5.34-20.91,7.55-22.31,18Z" />
        <rect class="cls-4" x="726.86" y="890.19" width="140.8" height="3.84" />
        <path class="cls-4"
            d="M726.86,884.32h140.8a5.84,5.84,0,0,1,5.79,5.87V894a5.84,5.84,0,0,1-5.79,5.87H726.86a5.83,5.83,0,0,1-5.79-5.87v-3.81A5.83,5.83,0,0,1,726.86,884.32Z" />
        <path class="cls-8"
            d="M698.1,414.54l88.42,425.25c26.15,12.45,61,10.91,81.16-.45-17.25-132.13-30.46-225.16-38.62-278.2-10.76-70.1,46.83-146.65-21-208Z" />
        <path class="cls-8"
            d="M827.67,854.32a103.06,103.06,0,0,1-43.78-9.25,5.78,5.78,0,0,1-3.21-4.08L692.45,415.74a5.84,5.84,0,0,1,2.86-6.32L805.1,348.09a5.72,5.72,0,0,1,6.63.78c46.33,41.81,37.3,90.44,28.59,137.51-4.57,24.61-9.28,50.07-5.63,73.86,5.76,37.54,18.42,123.59,38.65,278.32a5.9,5.9,0,0,1-2.92,5.9C858.77,851,843.4,854.32,827.67,854.32ZM791.5,835.66c23.54,10.1,52.61,8.26,69.84.32-14.54-111.27-28.41-211-38.06-273.93-4-25.78.94-52.23,5.68-77.83,8.29-44.75,16.13-87.06-21.94-123.81L704.63,417.58Z" />
        <path class="cls-9"
            d="M807.12,345.16c-46.06-67.83-93.39-133.11-167.53-133.11-67.48,0-68.79,53.65-46.85,81.19C623,331,690.87,425.13,690.87,425.13S778.76,394.44,807.12,345.16Z" />
        <path class="cls-9"
            d="M690.89,431a5.72,5.72,0,0,1-4.68-2.4c-.68-.93-68.16-94.41-98-131.64-14.28-17.86-18.07-42.24-9.42-60.66,12.29-26.13,43.36-30,60.77-30,80.22,0,131.28,75.17,172.29,135.59a6,6,0,0,1,.24,6.27c-12.31,21.33-36.22,41.78-71,60.66a359.56,359.56,0,0,1-48.33,21.92A5.63,5.63,0,0,1,690.89,431Zm-51.3-213c-25.75,0-43.14,8-50.32,23.36-6.69,14.21-3.42,34,7.89,48.23,26.65,33.28,83.05,111,95.76,128.56,16.78-6.46,82.08-33.5,107.23-72.77-22.44-33-44.72-64.37-70.21-87.81C701.15,230.93,671.58,218,639.59,218Z" />
        <path class="cls-7"
            d="M513.61,345.16c-3.08-11.14-2.79-23.44-1.5-36.37,4.28-42.5,19.73-90.79-38.12-120.52a20.68,20.68,0,0,1-14.34-23c5.26-35.17,44.72-60.82,80.11-59.3,41.06,1.68,69.37,41.57,65.37,78.69-4.55,42.31-34.67,57.59-17.49,160.49Z" />
        <path class="cls-7"
            d="M587.64,351h-74a5.81,5.81,0,0,1-5.56-4.27c-3.6-13-2.86-26.66-1.68-38.56.55-5.52,1.29-11.2,2-16.72,5-37.89,9.73-73.72-36.6-97.77a26.69,26.69,0,0,1-17.86-29.34c6-39.75,50.14-65.78,86.05-64.31a72,72,0,0,1,52,26,80.1,80.1,0,0,1,18.86,59.31c-1.5,13.78-5.5,24.69-9.73,36.23-9.1,24.88-19.44,53.07-7.89,122.66a5.87,5.87,0,0,1-4.74,6.77,5.29,5.29,0,0,1-1,.08Zm-69.46-11.74h62.67c-10.34-67.72.16-96.41,9.47-121.83,4.16-11.3,7.73-21.09,9.08-33.43a68.08,68.08,0,0,0-16.13-50.24,60.24,60.24,0,0,0-43.75-21.95c-38.62-1.65-70.06,27.31-74.16,54.32a14.86,14.86,0,0,0,10.28,16.56,7,7,0,0,1,1,.4c54.09,27.81,48.32,71.49,43.25,110-.77,5.65-1.48,11-2,16.34A105.57,105.57,0,0,0,518.18,339.29Z" />
        <path class="cls-2"
            d="M572.25,373.37a7.24,7.24,0,0,0-10.11-2.07l0,0h-.21l-39.73,28.74a69.26,69.26,0,0,0-18.86,18l-28.47,39.7-15-19.07a59.28,59.28,0,0,1-12.1-27.81c-1.66-10.66-3.66-23.7-4.66-29-2.63-13.52.68-22.13,15.65-26.85,18-5.65,20.5-16.83,20.5-16.83s-20.08,1.87-36.49,4.54c-14.29,2.34-18.73-14.56-6.34-22,36.33-22,19.81-49.41,19.81-49.41l-39.15,24.39c-47.77-2.26-58.77,37.74-56.74,62.29s3.28,54.08,1.05,77.46c-5.26,86.21-44.73,116.13-83.85,165.17C249.29,635.83,236,667.88,267,709.37c23.44,31.18,34.7,46.11,34.7,46.11l-13.39,20.4a19.93,19.93,0,0,0-.34,21.33l57.61,94h36.2s.55-23.43-21.68-17.94l-33.8-62.08,26.52-68.63a51.65,51.65,0,0,0-.92-39.39l-11.66-26.39s99.1-64.93,119.62-164.39l26.31.16A25.35,25.35,0,0,0,511.08,492l14.65-73.65L578,382.25Z" />
        <path class="cls-2"
            d="M381.93,897h-36.2a5.74,5.74,0,0,1-4.92-2.66l-57.58-94.08a25.85,25.85,0,0,1,.42-27.65l11.1-16.9-32.2-42.67c-35.1-46.66-15.79-83.35,10.52-116,6.6-8.24,13.16-16,19.57-23.41,31.57-36.8,58.67-68.56,63.14-138.45v-.21c2.32-24.13.71-54.85-1-76.39-1.29-15.55,2.37-37.33,16.47-52.27,10.87-11.41,25.83-16.95,44.51-16.45l37.65-23.46a5.69,5.69,0,0,1,4.37-.72,5.87,5.87,0,0,1,3.6,2.66,38.28,38.28,0,0,1,3.53,27c-2.9,11.84-11.42,22.1-25.34,30.5-4,2.46-5,6-4.1,8.43s3.23,3.36,6.57,2.66c16.45-2.66,36.1-4.37,36.84-4.42a5.77,5.77,0,0,1,6.23,5.32,5.85,5.85,0,0,1-.13,1.82c-.34,1.47-3.87,14.67-24.41,21.12-11,3.5-13.89,8.38-11.69,20.16.9,4.77,2.64,15.68,4.08,25.31l.61,3.89a53.63,53.63,0,0,0,10.89,25.06l10.29,13,23.94-33.49A74.71,74.71,0,0,1,519,395.34l40-28.9a13,13,0,0,1,18.15,3.68L582.9,379a5.92,5.92,0,0,1-1.55,8l-50.3,34.67L516.84,493a31.12,31.12,0,0,1-30.57,25.23l-21.62-.14c-20.37,87.65-97.92,147.11-117,160.61l9.69,21.91a58,58,0,0,1,1,43.89l-25.54,66.08,30.51,56a20.44,20.44,0,0,1,16,4.1c8.47,6.91,8.45,19.12,8.42,20.51A5.82,5.82,0,0,1,381.93,897Zm-33-11.7h26.31A11.13,11.13,0,0,0,372,880c-2.27-1.81-5.77-2.13-10.53-1a5.79,5.79,0,0,1-6.42-2.85L321.4,814a6,6,0,0,1-.34-5l26.54-68.63a46.11,46.11,0,0,0-.81-34.85l-11.68-26.4a5.91,5.91,0,0,1,2.15-7.31c1-.64,97.34-64.82,117.1-160.68a5.78,5.78,0,0,1,5.66-4.66h0l26.3.16a19.65,19.65,0,0,0,19.21-15.82l14.65-73.67a5.83,5.83,0,0,1,2.4-3.68l47.51-32.8-2.63-4h0a1.52,1.52,0,0,0-2.12-.44v0L525.55,405l-.26.19A63,63,0,0,0,508,421.61l-28.49,39.7a5.75,5.75,0,0,1-4.52,2.43,5.87,5.87,0,0,1-4.66-2.21l-15-19.07A65.27,65.27,0,0,1,442.05,412l-.61-3.87c-1.47-9.55-3.15-20.37-4-25-3.32-17.62,2.92-28.29,19.62-33.54a38,38,0,0,0,8.9-4c-6.71.75-14.9,1.73-22.26,3-8.95,1.47-16.5-2.67-19.29-10.35-3-8.23.77-17.51,9.05-22.5,21.95-13.33,22.1-27.92,20.05-35.81l-33.38,20.82a5.73,5.73,0,0,1-3.29.86c-16.05-.75-28.65,3.54-37.44,12.8C368,326.42,365,344.6,366.1,357.59c1.79,22,3.44,53.33,1,78.39-4.58,73.76-34.2,108.53-65.77,145.3-6.32,7.38-12.84,15-19.31,23.12-27.62,34.45-39,63.46-10.29,101.56L306.46,752a6,6,0,0,1,.23,6.8L293.3,779.26a14,14,0,0,0-.23,15Z" />
        <path class="cls-2"
            d="M363.15,331.54c-18.92,15.73-31.25,35.91-18.15,70.31C344.94,401.88,409.35,378.09,363.15,331.54Z" />
        <path class="cls-2"
            d="M345,407.72a5.76,5.76,0,0,1-5.26-3.76c-15.79-41.15,3.84-63.63,19.88-77a5.73,5.73,0,0,1,7.74.38C382,342.2,388,356.71,385,370.6c-5.26,24-34.54,35.49-37.88,36.74A6,6,0,0,1,345,407.72Zm17.76-68.11c-12.61,11.63-22.58,27.42-14.37,54.32,7.89-4,22.39-12.85,25.18-25.84C375.44,359.48,371.78,349.91,362.76,339.61Z" />
        <path class="cls-2"
            d="M439.07,332.87c17.32,0,29.5,16.24,32.63,28.26,2.44,9.47,13.15,6.7,10.52-2.82s-15-32.69-43.25-25.44Z" />
        <path class="cls-2"
            d="M477.72,371.19a10,10,0,0,1-2.37-.32,11.44,11.44,0,0,1-7.65-8.67c-2.63-10.45-13.42-25.15-28.63-25.15a4.19,4.19,0,0,1-1-8.26c27.86-7.09,44.12,13.09,48.27,28.42A11.43,11.43,0,0,1,484,368.52,8.85,8.85,0,0,1,477.72,371.19Zm-14.07-31.63a47.62,47.62,0,0,1,12.05,20.51c.44,1.76,1.23,2.66,1.81,2.66a.65.65,0,0,0,.66-.18c.37-.38.66-1.44.18-3.18a37.27,37.27,0,0,0-14.7-19.81Z" />
        <path class="cls-2" d="M457.67,274.26s-2.94,1-4.1-1.31l2.63-1.68A7.68,7.68,0,0,1,457.67,274.26Z" />
        <path class="cls-2"
            d="M456.23,280.34a8.63,8.63,0,0,1-7.89-4.72,5.91,5.91,0,0,1,2.18-7.71l2.63-1.68a5.72,5.72,0,0,1,7.55,1.5,13.26,13.26,0,0,1,2.42,5.33,5.83,5.83,0,0,1-3.81,6.75A9.87,9.87,0,0,1,456.23,280.34Zm0-11.71a1.93,1.93,0,0,0-.48,0l.87,2.67,2-1a3,3,0,0,0-2.42-1.63Z" />
        <ellipse class="cls-2" cx="404.85" cy="308.98" rx="3.03" ry="3.07" />
        <path class="cls-2"
            d="M404.85,314.55a5.58,5.58,0,1,1,5.47-5.6v0A5.56,5.56,0,0,1,404.85,314.55Zm0-6.13a.55.55,0,0,0-.55.56h0a.52.52,0,0,0,.52.53h0a.56.56,0,0,0,.24-1.09A.49.49,0,0,0,404.85,308.42Z" />
        <path class="cls-6"
            d="M647.25,285.33l-43.7,31.22L643,369.27l-106.57,8.1a21.69,21.69,0,0,0-9.55,3.36l-15.15,9.73a9.09,9.09,0,0,0-2.77,12.4,9.68,9.68,0,0,0,1.74,2l18.63,16a15.18,15.18,0,0,0,17.86,1.47l26.62-17.26,94.71-2.18a28.54,28.54,0,0,0,27.7-29.35,29.06,29.06,0,0,0-4.2-14.44Z" />
    </g>
</svg>