<svg id="Layer_1" data-name="Layer 1" xmlns="http://www.w3.org/2000/svg" viewBox="0 0 1000 1000"><defs><style>.cls-1{fill:#00aa5a;stroke:#231f20;stroke-miterlimit:10;}.cls-2,.cls-3{fill:#fff;}.cls-3{font-size:417.84px;font-family:Arial-BoldMT, Arial;font-weight:700;}</style></defs><rect class="cls-1" width="1000" height="1000"/><path class="cls-2" d="M326,946.06c-7.58.22-16.54-.18-25.42,1.12-13.27,1.94-14.29,7.24-22.92,13.53-16.32,11.87-25.09-4.09-34.38-10.63a8.51,8.51,0,0,1-2.68-2.87c-2.38-4.75-6-8.74-9.49-12.79-5.84-6.69,2.82-15.06,7.41-17.52,5.8-3.11-5.11-4.45-5.05-10.88,0-1.39-2.06-2.27-3.58.18-4.47,7.17-15.38,28.3-36.19,38.84-17.51,8.87-27.25,1.8-31.32.4-8.14-2.8-15.39-7-22.4-11.57-2.25-1.46-5.73-1.53-6.61-4.63-1.19-4.15-3.37-8.18-.79-12.59,2.34-4,10.39-3.69,4.75-8.4-4.39-3.67-4.78-10.68-.86-15.11,5.26-6,8.11-11.17,20.19-12.11,11.53-.9,16.78,1.06,25.12-8.67,3.67-4.28,40.2-78.79,49.34-107.25,2.68-8.35,3-9.78.34-11.23-14.51-7.79-25.39-20.53-29.46-23a8.55,8.55,0,0,1-3.92-6.38c-9.17-61.85-6.59-33.1-8.1-73.38-.34-9,2.14-17.81,4.78-26.54,6.18-20.44,23.45-19.85,23.33-51.16-.08-19,2.77-29.3,10.42-54.56,7.3-24.1,5.07-5.94,8.56-43.64,1.2-12.94,12.2-21.89,16.56-44.22,1.25-6.42-27-39.07-30.81-43.52C207.7,370,200.5,357.61,202,343.53c.72-6.87.45-14.15,5.4-20,5.48-6.49,5.57-20.24,12.67-28.32,14-16,34.52,15.15,70.28,32,9.15,4.3,8.59-.35,14.22-.79,20.28-1.6,51.76,14.59,69.05,24.24,50.19,28,44.9,106.39,28.65,111.09-2.37.68-3.07,1.75-2.3,4.3,3.22,10.65,7.48,21.17,6.37,32.52-4.54,46.12,2.06,70,45,109.34,35.76,32.77,85.9,120.49,107.8,165.49,2.4,4.91,2.79,10.12,4,15.19,8.28,33.41,7.53,12.17,6.35,61.14-.13,5.38-5.54,9.16,1.73,11.07,22.44,5.89,26.48,9.06,36.65,16.47,54.68,39.83,70.27,40.66,117.11,44.69,9.39.81,18.4,3.18,27.62,4.67,5.36.87,10.82.86,16.15,2,3.56.74,28.7-3.17,29.18-3.24,16.4-2.47,29.36,13.39-7.89,27.82-16,6.18-16.7,6.9-25.91,7.06-18.66.32-65.29-3.24-91.72-2.2-23.51.92-59.25-17-82.18-27.12-5.84-2.58-12.36-2.61-18.64-2.63-10.12,0-19.71-2.7-29.56-4-45-6-13.56,3.34-76.92,10.26-11.82,1.29-23.38-.74-34.91-2.52-5.2-.81-9.11-4.17-12.69-7.5-4.91-4.58-11.13-7.91-15.22-13.25a1.46,1.46,0,0,0-1.7-.56c-1.83.7-.73,1.3-1.54,9.47-2.23,22.55-17.35,23.26-34,24.16C352.52,945,340,946,326,946.06Zm-34.88-68.83c4.42-1.29,9.91-.92,15.3-1.82,25.08-4.15,29.54-3,19.05-20.37-4.3-7.15-7.17-14.88-11.06-22.2-2-3.71-3.8-7.34-3.15-11.65,3.79-25.06.62-13.76,6.29-33.08a2.29,2.29,0,0,0-.79-2.86c-4.57-3.4-9.61-2.76-12.68,1.91-34.22,51.91-50.37,63.7-53.78,81.39-.77,4,1.28,3.32,9.18,8.92,4.6,3.26,7.32-2.15,21.19-1.13C283.86,876.58,287.05,876.88,291.13,877.23ZM306,916.94c2.41.47,4.63-.65,7-.68a214.85,214.85,0,0,0,41.39-4c10.14-2,5.33-7.4,3.67-13-2.23-7.59-8.18,1.77-64.59,5.1-23.2,1.37-21.24-2.49-30.39,1.73-2.62,1.21-1.77,3.35.86,2.9,8-1.35,8.64,6.24,17.7,6.7C289.76,916.13,297.92,916.17,306,916.94Z"/><text class="cls-3" transform="translate(621.5 452.16) scale(0.91 1)">?</text></svg>