<svg id="Layer_1" data-name="Layer 1" xmlns="http://www.w3.org/2000/svg" viewBox="0 0 1000 1000"><defs><style>.cls-1{fill:#f15a29;stroke:#231f20;stroke-miterlimit:10;}.cls-2,.cls-3{fill:#fff;}.cls-3{fill-rule:evenodd;}</style></defs><rect class="cls-1" x="-0.48" width="1000" height="1000"/><g id="g6547"><path id="path12" class="cls-2" d="M705.09,929.68l-3.53.5-3.39.43-3.28.35-3.12.27-3,.2-2.89.12-2.79.07h-2.68l-2.55-.09-2.45-.14-2.34-.21-2.24-.26-2.15-.35-2-.39-1.94-.45-1.83-.52-1.75-.57-1.67-.64-1.56-.7-1.5-.74-1.39-.8-1.33-.86-1.25-.91-1.16-1-1.1-1-1-1.07-1-1.11-.89-1.15-.82-1.21-.76-1.26-1.33-2.63-1.12-2.79-.9-3-.74-3.11-.57-3.27-.4-3.39-.3-3.51-.19-3.64-.1-3.76,0-3.84.05-4,0-4,.08-4.09.11-8.43,0-4.27-4.62-95.1-19.25,87.8c-4.05,16.28-8.61,31.57,15.7,43.9,17.22,14.82-2,35.05-20.76,32.58-56.22,1.95-48.12-34.53-43.06-60.2l3-37.49,9.12-76.46-7.6-19.23C511.61,719.05,470.07,707.71,423,683l-33.43,4.44c-15.7,2.47-11.65,19.73-13.17,31.08l-5.06,31.1L343.45,820.2l-2,5.9c-2,4.93-1.52,24.17,5.57,34l15.19,29.62C373.34,906,376.37,947.44,345,934.12h.51l-23.3-9.37c-16.71-6.88-30.39-51.77-36.47-84.33l1-46.39C272,790.11,266,872.46,272,889.75l14.69,42.89c4,13.82-12.67,18.77-24.32,18.77-27.35,0-39.5-27.15-45.07-49.84l-4.06-17.27c-7.09-26.14-3.54-66.1,10.13-89.28l7.09-14.31c11.65-28.61-3.54-48.83-7.09-63.63-11.65-46.37-21.27-91.26,11.65-135.65l3-3.43c-1.52-3.48-11.14-10.86-16.71-28.14-12.66-39.46-23.81-104.08-8.11-104.08l10.64-.5c26.34,0,18.23,106.55,50.14,99.65L502,547.39l40.52-10.83c14.19-4,26.85-12.85,40-20.74L608.85,500c29.38,29.1,55.72,47.35,98.77,62.64C719.27,649.5,706.1,668.76,695,720.53l-4.05,21.21c-8.62,37-11.15,75.48-9.12,114l1,17.76c-1,18.25,10.13,19.75,24.82,24.19,9.62,4.91,16.21,23.17-2.53,32h0Z"/><path id="path14" class="cls-2" d="M753.71,397.93l1.14.82,1.18.82,2.39,1.79,2.47,1.91,2.51,2,2.55,2.13,2.58,2.22,2.61,2.31,2.64,2.36,2.64,2.45,2.64,2.46,5.21,5.06,2.55,2.55,2.53,2.55,2.47,2.52,2.41,2.53,16.21,16.75c10.13,10.36,25.83,8.88,39.5,11.84l5.57.49c14.69,7.92,10.13,23.7,5.07,35.52l-3,7.42c-14.69,34-57.23,36.48-87.62,20.7l-13.17-6.91h-4.56l-9.62,5.92L723.83,541c-39.51-16.77-71.42-36.52-96.74-63.16l58.75-72,19.75-27.62,4.06-9.38,4.55-10.33s18.24-22.22,28.87-17.78,17.22,23.67,14.69,33.54l-3,11.84-1,11.84h.51"/></g><g id="Layer_1-2" data-name="Layer_1"><path class="cls-3" d="M480.06,295.39V286.3h9.09v9.09Zm27.27-9.09h18.19v9.09H498.24V268.12h18.19V259h9.09v18.18H507.33Zm36.37-18.18h-9.09V259h9.09Zm36.36-63.64H571v-9.09h9.09Zm45.46-54.54V159h-9.09v-9.09h-9.1v18.18H589.15v9.09h-9.09v9.09H571v-9.09h-9.09v9.09h-9.09v9.09H534.61v9.09h27.27v18.19h-9.09v9.09H534.61v9.09h9.09v9.09H516.43v-9.09h9.09V222.67h9.09v-9.09H516.43v-9.1h-9.1v18.19h9.1v9.09H498.24v9.09h9.09v9.09H489.15v27.27H471v18.18h9.09v18.19h9.09v-9.1h27.28v9.1h9.09v-9.1H543.7v-9.09h-9.09V277.21h9.09v-9.09h9.09v9.09h9.09v-9.09h36.36V259h-9.09v-9.09h-9.09V259H571V240.85h-9.09v-9.09H571V213.58h9.09v-9.1h9.09v-9.09h9.09V186.3h9.09v-9.09h9.1v-9.09h18.18v9.09h-9.09v9.09h-9.09v9.09h18.18v9.09h9.09V140.85h-9.09v9.09Z"/><path class="cls-3" d="M398.24,204.48h9.09v9.1h-9.09Zm0-9.09v9.09h-9.09v-9.09ZM371,204.48v-9.09h9.09v9.09Zm27.27-9.09V186.3h9.09v9.09Zm-45.45-9.09h9.09v9.09h-9.09ZM371,168.12h9.09v9.09H371Zm0,0h-9.09V159H371Zm-18.18,45.46h9.09v-9.1H371v9.1h9.09v18.18H371v9.09h18.18v9.09h9.09v-9.09h18.19v-9.09H389.15v-9.09h36.37v-9.09h9.09v-9.1h-9.09V186.3h9.09V159H416.43v18.18H398.24v9.09h-9.09V159h-9.09v-9.09H371v-9.09h-9.09V159H343.7v9.09h9.09v9.09H343.7v27.27h9.09Z"/><path class="cls-3" d="M571,295.39h27.27v27.28H571Zm0,45.46v-9.09h27.27v9.09h-9.09v9.09h9.09V359h9.09v9.09h9.1V349.94h-9.1v-9.09h18.19v-9.09H607.33V313.58h18.19v-9.1H607.33v-9.09h9.1V277.21h-9.1v9.09h-9.09v-9.09H580.06v9.09H561.88v9.09h-9.09v9.09h9.09v9.1h-9.09v18.18h9.09v9.09Z"/><polygon class="cls-3" points="525.52 122.67 525.52 131.76 516.43 131.76 516.43 140.85 525.52 140.85 525.52 149.94 516.43 149.94 516.43 177.21 534.61 177.21 534.61 186.3 543.7 186.3 543.7 168.12 534.61 168.12 534.61 159.03 552.79 159.03 552.79 168.12 561.88 168.12 561.88 159.03 570.97 159.03 570.97 113.58 561.88 113.58 561.88 131.76 552.79 131.76 552.79 122.67 543.7 122.67 543.7 140.85 561.88 140.85 561.88 149.94 534.61 149.94 534.61 122.67 525.52 122.67"/><path class="cls-3" d="M589.15,77.21h45.46v45.46H589.15Zm-9.09,54.55H643.7V68.12H580.06Z"/><path class="cls-3" d="M352.79,313.58h45.45V359H352.79Zm-9.09,54.54h63.63V304.48H343.7Z"/><path class="cls-3" d="M352.79,77.21h45.45v45.46H352.79Zm-9.09,54.55h63.63V68.12H343.7Z"/><path class="cls-3" d="M589.15,240.85V222.67h9.09v-9.09h9.09v27.27Zm36.37-9.09h-9.09v-9.09h9.09Zm-36.37-27.28v9.1h-9.09v18.18H571v9.09h18.18v9.09h9.09V259h9.09v-9.09h9.1v-9.09h9.09v-9.09h9.09v9.09h9.09V222.67h-9.09v-9.09H616.43V195.39h-9.1v9.09Z"/><polygon class="cls-3" points="434.61 113.58 443.7 113.58 443.7 122.67 452.79 122.67 452.79 140.85 443.7 140.85 443.7 159.03 452.79 159.03 452.79 149.94 461.88 149.94 461.88 113.58 452.79 113.58 452.79 104.48 443.7 104.48 443.7 77.21 452.79 77.21 452.79 68.12 416.43 68.12 416.43 77.21 425.52 77.21 425.52 86.3 416.43 86.3 416.43 95.39 425.52 95.39 425.52 104.48 434.61 104.48 434.61 113.58"/><polygon class="cls-3" points="443.7 331.76 452.79 331.76 452.79 359.03 443.7 359.03 443.7 349.94 434.61 349.94 434.61 368.12 461.88 368.12 461.88 359.03 470.97 359.03 470.97 349.94 489.15 349.94 489.15 340.85 480.06 340.85 480.06 322.67 470.97 322.67 470.97 340.85 461.88 340.85 461.88 322.67 443.7 322.67 443.7 331.76"/><path class="cls-3" d="M452.79,177.21h9.09v9.09h-9.09Zm-18.18,9.09v18.18h9.09v9.1h9.09V195.39H471V168.12H452.79v9.09H443.7v9.09Z"/><path class="cls-3" d="M489.15,122.67v9.09h-9.09v-9.09ZM471,113.58v27.27h18.18v9.09h9.09V122.67h-9.09V95.39h-9.09v18.19Z"/><polygon class="cls-3" points="625.52 313.57 625.52 331.76 634.61 331.76 634.61 340.85 625.52 340.85 625.52 349.94 643.7 349.94 643.7 295.39 634.61 295.39 634.61 313.57 625.52 313.57"/><polygon class="cls-3" points="361.88 113.58 389.15 113.58 389.15 86.3 361.88 86.3 361.88 113.58"/><polygon class="cls-3" points="598.24 113.58 625.52 113.58 625.52 86.3 598.24 86.3 598.24 113.58"/><polygon class="cls-3" points="361.88 349.94 389.15 349.94 389.15 322.67 361.88 322.67 361.88 349.94"/><polygon class="cls-3" points="434.61 240.85 443.7 240.85 443.7 259.03 452.79 259.03 452.79 240.85 461.88 240.85 461.88 249.94 470.97 249.94 470.97 231.76 452.79 231.76 452.79 222.67 443.7 222.67 443.7 231.76 434.61 231.76 434.61 240.85"/><polygon class="cls-3" points="470.97 222.67 470.97 231.76 480.06 231.76 480.06 249.94 489.15 249.94 489.15 231.76 498.24 231.76 498.24 213.57 480.06 213.57 480.06 222.67 470.97 222.67"/><polygon class="cls-3" points="552.79 95.39 552.79 68.12 543.7 68.12 543.7 77.21 525.52 77.21 525.52 86.3 534.61 86.3 534.61 95.39 552.79 95.39"/><polygon class="cls-3" points="407.33 268.12 416.43 268.12 416.43 277.21 434.61 277.21 434.61 268.12 425.52 268.12 425.52 259.03 416.43 259.03 416.43 249.94 398.24 249.94 398.24 259.03 407.33 259.03 407.33 268.12"/><polygon class="cls-3" points="443.7 304.48 443.7 313.57 470.97 313.57 470.97 295.39 461.88 295.39 461.88 286.3 452.79 286.3 452.79 304.48 443.7 304.48"/><polygon class="cls-3" points="343.7 249.94 361.88 249.94 361.88 231.76 343.7 231.76 343.7 249.94"/><polygon class="cls-3" points="489.15 149.94 461.88 149.94 461.88 159.03 480.06 159.03 480.06 168.12 489.15 168.12 489.15 149.94"/><polygon class="cls-3" points="580.06 168.12 589.15 168.12 589.15 159.03 598.24 159.03 598.24 140.85 589.15 140.85 589.15 149.94 580.06 149.94 580.06 168.12"/><polygon class="cls-3" points="398.24 286.3 398.24 277.21 380.06 277.21 380.06 286.3 370.97 286.3 370.97 295.39 389.15 295.39 389.15 286.3 398.24 286.3"/><polygon class="cls-3" points="425.52 131.76 425.52 122.67 434.61 122.67 434.61 113.58 416.43 113.58 416.43 131.76 425.52 131.76"/><polygon class="cls-3" points="352.79 268.12 343.7 268.12 343.7 277.21 361.88 277.21 361.88 259.03 352.79 259.03 352.79 268.12"/><polygon class="cls-3" points="434.61 304.48 425.52 304.48 425.52 295.39 416.43 295.39 416.43 313.57 434.61 313.57 434.61 304.48"/><polygon class="cls-3" points="470.97 222.67 470.97 213.57 480.06 213.57 480.06 204.48 461.88 204.48 461.88 222.67 470.97 222.67"/><polygon class="cls-3" points="525.52 122.67 525.52 95.39 516.43 95.39 516.43 122.67 525.52 122.67"/><polygon class="cls-3" points="634.61 249.94 634.61 277.21 643.7 277.21 643.7 249.94 634.61 249.94"/><polygon class="cls-3" points="616.43 277.21 625.52 277.21 625.52 259.03 607.34 259.03 607.34 268.12 616.43 268.12 616.43 277.21"/><polygon class="cls-3" points="434.61 240.85 425.52 240.85 425.52 259.03 434.61 259.03 434.61 240.85"/><polygon class="cls-3" points="561.88 95.39 570.97 95.39 570.97 77.21 561.88 77.21 561.88 95.39"/><polygon class="cls-3" points="452.79 286.3 452.79 268.12 443.7 268.12 443.7 286.3 452.79 286.3"/><polygon class="cls-3" points="461.88 268.12 480.06 268.12 480.06 259.03 461.88 259.03 461.88 268.12"/><polygon class="cls-3" points="498.24 331.76 507.33 331.76 507.33 313.57 498.24 313.57 498.24 331.76"/><polygon class="cls-3" points="534.61 331.76 543.7 331.76 543.7 313.57 534.61 313.57 534.61 331.76"/><polygon class="cls-3" points="507.33 122.67 507.33 104.48 498.24 104.48 498.24 122.67 507.33 122.67"/><polygon class="cls-3" points="343.7 295.39 361.88 295.39 361.88 286.3 343.7 286.3 343.7 295.39"/><polygon class="cls-3" points="570.97 349.94 561.88 349.94 561.88 368.12 570.97 368.12 570.97 349.94"/><polygon class="cls-3" points="498.24 186.3 507.33 186.3 507.33 168.12 498.24 168.12 498.24 186.3"/><polygon class="cls-3" points="398.24 149.94 416.43 149.94 416.43 140.85 398.24 140.85 398.24 149.94"/><polygon class="cls-3" points="416.43 295.39 416.43 286.3 398.24 286.3 398.24 295.39 416.43 295.39"/><polygon class="cls-3" points="443.7 304.48 443.7 286.3 434.61 286.3 434.61 304.48 443.7 304.48"/><polygon class="cls-3" points="480.06 368.12 498.24 368.12 498.24 359.03 480.06 359.03 480.06 368.12"/><polygon class="cls-3" points="516.43 359.03 516.43 368.12 534.61 368.12 534.61 359.03 516.43 359.03"/><polygon class="cls-3" points="634.61 277.21 625.52 277.21 625.52 286.3 634.61 286.3 634.61 277.21"/><polygon class="cls-3" points="398.24 159.03 398.24 149.94 389.15 149.94 389.15 159.03 398.24 159.03"/><polygon class="cls-3" points="516.43 359.03 516.43 349.94 507.33 349.94 507.33 359.03 516.43 359.03"/><polygon class="cls-3" points="634.61 249.94 634.61 240.85 625.52 240.85 625.52 249.94 634.61 249.94"/><polygon class="cls-3" points="552.79 277.21 543.7 277.21 543.7 286.3 552.79 286.3 552.79 277.21"/><polygon class="cls-3" points="498.24 86.3 498.24 77.21 489.15 77.21 489.15 86.3 498.24 86.3"/><polygon class="cls-3" points="561.88 95.39 552.79 95.39 552.79 104.48 561.88 104.48 561.88 95.39"/><polygon class="cls-3" points="516.43 131.76 516.43 122.67 507.33 122.67 507.33 131.76 516.43 131.76"/><polygon class="cls-3" points="434.61 131.76 425.52 131.76 425.52 140.85 434.61 140.85 434.61 131.76"/><polygon class="cls-3" points="498.24 149.94 498.24 159.03 507.33 159.03 507.33 149.94 498.24 149.94"/><polygon class="cls-3" points="480.06 204.48 489.15 204.48 489.15 195.39 480.06 195.39 480.06 204.48"/><polygon class="cls-3" points="516.43 204.48 525.52 204.48 525.52 195.39 516.43 195.39 516.43 204.48"/><polygon class="cls-3" points="598.24 359.03 589.15 359.03 589.15 368.12 598.24 368.12 598.24 359.03"/><polygon class="cls-3" points="461.88 77.21 470.97 77.21 470.97 68.12 461.88 68.12 461.88 77.21"/><polygon class="cls-3" points="607.34 277.21 607.34 268.12 598.24 268.12 598.24 277.21 607.34 277.21"/><polygon class="cls-3" points="625.52 149.94 625.52 140.85 616.43 140.85 616.43 149.94 625.52 149.94"/><polygon class="cls-3" points="343.7 149.94 352.79 149.94 352.79 140.85 343.7 140.85 343.7 149.94"/><polygon class="cls-3" points="370.97 213.57 361.88 213.57 361.88 222.67 370.97 222.67 370.97 213.57"/><polygon class="cls-3" points="352.79 213.57 343.7 213.57 343.7 222.67 352.79 222.67 352.79 213.57"/><polygon class="cls-3" points="443.7 122.67 434.61 122.67 434.61 131.76 443.7 131.76 443.7 122.67"/><polygon class="cls-3" points="552.79 104.48 543.7 104.48 543.7 113.58 552.79 113.58 552.79 104.48"/><polygon class="cls-3" points="470.97 113.58 470.97 104.48 461.88 104.48 461.88 113.58 470.97 113.58"/><polygon class="cls-3" points="461.88 104.48 461.88 95.39 452.79 95.39 452.79 104.48 461.88 104.48"/><polygon class="cls-3" points="498.24 86.3 498.24 95.39 507.33 95.39 507.33 86.3 498.24 86.3"/><polygon class="cls-3" points="461.88 95.39 470.97 95.39 470.97 86.3 461.88 86.3 461.88 95.39"/><polygon class="cls-3" points="498.24 77.21 507.33 77.21 507.33 68.12 498.24 68.12 498.24 77.21"/><polygon class="cls-3" points="489.15 77.21 489.15 68.12 480.06 68.12 480.06 77.21 489.15 77.21"/><polygon class="cls-3" points="580.06 313.57 589.15 313.57 589.15 304.48 580.06 304.48 580.06 313.57"/><polygon class="cls-3" points="443.7 331.76 434.61 331.76 434.61 340.85 443.7 340.85 443.7 331.76"/><polygon class="cls-3" points="389.15 249.94 380.06 249.94 380.06 259.03 389.15 259.03 389.15 249.94"/><polygon class="cls-3" points="416.43 349.94 425.52 349.94 425.52 340.85 416.43 340.85 416.43 349.94"/><polygon class="cls-3" points="516.43 349.94 525.52 349.94 525.52 340.85 516.43 340.85 516.43 349.94"/><polygon class="cls-3" points="534.61 349.94 543.7 349.94 543.7 340.85 534.61 340.85 534.61 349.94"/><polygon class="cls-3" points="570.97 340.85 570.97 349.94 580.06 349.94 580.06 340.85 570.97 340.85"/><polygon class="cls-3" points="580.06 177.21 580.06 168.12 570.97 168.12 570.97 177.21 580.06 177.21"/><polygon class="cls-3" points="416.43 368.12 425.52 368.12 425.52 359.03 416.43 359.03 416.43 368.12"/><polygon class="cls-3" points="443.7 222.67 443.7 213.57 434.61 213.57 434.61 222.67 443.7 222.67"/><polygon class="cls-3" points="398.24 159.03 398.24 168.12 407.33 168.12 407.33 159.03 398.24 159.03"/><polygon class="cls-3" points="407.33 268.12 398.24 268.12 398.24 277.21 407.33 277.21 407.33 268.12"/><polygon class="cls-3" points="634.61 368.12 643.7 368.12 643.7 359.03 634.61 359.03 634.61 368.12"/></g></svg>